<svg style="display: block;" viewBox="0 0 152 25" fill="none" xmlns="http://www.w3.org/2000/svg">
<path d="M9.248 24.352C7.648 24.352 6.19733 24 4.896 23.296C3.59467 22.592 2.57067 21.6213 1.824 20.384C1.07733 19.1467 0.704 17.76 0.704 16.224C0.704 14.6667 1.07733 13.28 1.824 12.064C2.592 10.8267 3.62667 9.856 4.928 9.152C6.22933 8.448 7.69067 8.096 9.312 8.096C10.528 8.096 11.6373 8.30933 12.64 8.736C13.664 9.14133 14.5707 9.76 15.36 10.592L12.224 13.728C11.8613 13.3227 11.4347 13.024 10.944 12.832C10.4747 12.64 9.93067 12.544 9.312 12.544C8.608 12.544 7.97867 12.704 7.424 13.024C6.89067 13.3227 6.464 13.7493 6.144 14.304C5.84533 14.8373 5.696 15.4667 5.696 16.192C5.696 16.9173 5.84533 17.5573 6.144 18.112C6.464 18.6667 6.90133 19.104 7.456 19.424C8.01067 19.744 8.62933 19.904 9.312 19.904C9.952 19.904 10.5173 19.7973 11.008 19.584C11.52 19.3493 11.9573 19.0293 12.32 18.624L15.424 21.76C14.6133 22.6133 13.696 23.264 12.672 23.712C11.648 24.1387 10.5067 24.352 9.248 24.352ZM23.724 24.32C22.2947 24.32 21.0147 23.968 19.884 23.264C18.7747 22.56 17.8893 21.6 17.228 20.384C16.588 19.168 16.268 17.7813 16.268 16.224C16.268 14.6667 16.588 13.28 17.228 12.064C17.8893 10.848 18.7747 9.888 19.884 9.184C21.0147 8.48 22.2947 8.128 23.724 8.128C24.7693 8.128 25.708 8.33067 26.54 8.736C27.3933 9.14133 28.0867 9.70667 28.62 10.432C29.1533 11.136 29.452 11.9467 29.516 12.864V19.584C29.452 20.5013 29.1533 21.3227 28.62 22.048C28.108 22.752 27.4253 23.3067 26.572 23.712C25.7187 24.1173 24.7693 24.32 23.724 24.32ZM24.716 19.904C25.7613 19.904 26.604 19.5627 27.244 18.88C27.884 18.176 28.204 17.2907 28.204 16.224C28.204 15.4987 28.0547 14.8587 27.756 14.304C27.4787 13.7493 27.0733 13.3227 26.54 13.024C26.028 12.704 25.4307 12.544 24.748 12.544C24.0653 12.544 23.4573 12.704 22.924 13.024C22.412 13.3227 21.996 13.7493 21.676 14.304C21.3773 14.8587 21.228 15.4987 21.228 16.224C21.228 16.928 21.3773 17.5573 21.676 18.112C21.9747 18.6667 22.3907 19.104 22.924 19.424C23.4573 19.744 24.0547 19.904 24.716 19.904ZM28.012 24V19.808L28.748 16.032L28.012 12.256V8.448H32.812V24H28.012ZM36.2593 24V8.448H41.1553V24H36.2593ZM41.1553 15.456L39.1073 13.856C39.5126 12.0427 40.1953 10.6347 41.1553 9.632C42.1153 8.62933 43.4486 8.128 45.1553 8.128C45.9019 8.128 46.5526 8.24533 47.1073 8.48C47.6833 8.69333 48.1846 9.03467 48.6113 9.504L45.6993 13.184C45.4859 12.9493 45.2193 12.768 44.8993 12.64C44.5793 12.512 44.2166 12.448 43.8113 12.448C43.0006 12.448 42.3499 12.704 41.8593 13.216C41.3899 13.7067 41.1553 14.4533 41.1553 15.456ZM58.5318 24.32C57.4864 24.32 56.5264 24.1067 55.6518 23.68C54.7771 23.232 54.0624 22.6453 53.5078 21.92C52.9531 21.1733 52.6331 20.3413 52.5477 19.424V12.864C52.6331 11.9467 52.9531 11.136 53.5078 10.432C54.0624 9.70667 54.7771 9.14133 55.6518 8.736C56.5264 8.33067 57.4864 8.128 58.5318 8.128C60.0038 8.128 61.3051 8.48 62.4358 9.184C63.5878 9.888 64.4838 10.848 65.1238 12.064C65.7851 13.28 66.1158 14.6667 66.1158 16.224C66.1158 17.7813 65.7851 19.168 65.1238 20.384C64.4838 21.6 63.5878 22.56 62.4358 23.264C61.3051 23.968 60.0038 24.32 58.5318 24.32ZM57.6678 19.904C58.3504 19.904 58.9478 19.744 59.4598 19.424C59.9931 19.104 60.4091 18.6667 60.7078 18.112C61.0064 17.5573 61.1558 16.928 61.1558 16.224C61.1558 15.4987 61.0064 14.8587 60.7078 14.304C60.4091 13.7493 59.9931 13.3227 59.4598 13.024C58.9478 12.704 58.3504 12.544 57.6678 12.544C56.9851 12.544 56.3771 12.704 55.8438 13.024C55.3104 13.3227 54.8944 13.7493 54.5958 14.304C54.3184 14.8587 54.1798 15.4987 54.1798 16.224C54.1798 16.9493 54.3291 17.5893 54.6278 18.144C54.9264 18.6987 55.3318 19.136 55.8438 19.456C56.3771 19.7547 56.9851 19.904 57.6678 19.904ZM49.5718 24V0.768H54.4678V12.256L53.6678 16.032L54.4038 19.808V24H49.5718ZM76.091 24.352C74.491 24.352 73.0403 24 71.739 23.296C70.459 22.5707 69.4457 21.5893 68.699 20.352C67.9523 19.1147 67.579 17.728 67.579 16.192C67.579 14.656 67.9523 13.28 68.699 12.064C69.4457 10.848 70.459 9.888 71.739 9.184C73.019 8.45867 74.4697 8.096 76.091 8.096C77.7123 8.096 79.163 8.448 80.443 9.152C81.723 9.856 82.7363 10.8267 83.483 12.064C84.2297 13.28 84.603 14.656 84.603 16.192C84.603 17.728 84.2297 19.1147 83.483 20.352C82.7363 21.5893 81.723 22.5707 80.443 23.296C79.163 24 77.7123 24.352 76.091 24.352ZM76.091 19.904C76.795 19.904 77.4137 19.7547 77.947 19.456C78.4803 19.136 78.8857 18.6987 79.163 18.144C79.4617 17.568 79.611 16.9173 79.611 16.192C79.611 15.4667 79.4617 14.8373 79.163 14.304C78.8643 13.7493 78.4483 13.3227 77.915 13.024C77.403 12.704 76.795 12.544 76.091 12.544C75.4083 12.544 74.8003 12.704 74.267 13.024C73.7337 13.3227 73.3177 13.7493 73.019 14.304C72.7203 14.8587 72.571 15.4987 72.571 16.224C72.571 16.928 72.7203 17.568 73.019 18.144C73.3177 18.6987 73.7337 19.136 74.267 19.456C74.8003 19.7547 75.4083 19.904 76.091 19.904Z" fill="white"/>
<path d="M92.7045 24.384C91.7872 24.384 90.8805 24.2667 89.9845 24.032C89.1098 23.7973 88.2885 23.4667 87.5205 23.04C86.7738 22.592 86.1338 22.08 85.6005 21.504L88.3845 18.688C88.8965 19.2427 89.5045 19.68 90.2085 20C90.9125 20.2987 91.6805 20.448 92.5125 20.448C93.0885 20.448 93.5258 20.3627 93.8245 20.192C94.1445 20.0213 94.3045 19.7867 94.3045 19.488C94.3045 19.104 94.1125 18.816 93.7285 18.624C93.3658 18.4107 92.8965 18.2293 92.3205 18.08C91.7445 17.9093 91.1365 17.728 90.4965 17.536C89.8565 17.344 89.2485 17.0773 88.6725 16.736C88.0965 16.3947 87.6272 15.9253 87.2645 15.328C86.9018 14.7093 86.7205 13.9307 86.7205 12.992C86.7205 11.9893 86.9765 11.1253 87.4885 10.4C88.0005 9.65333 88.7258 9.06667 89.6645 8.64C90.6032 8.21333 91.7018 8 92.9605 8C94.2832 8 95.4992 8.23467 96.6085 8.704C97.7392 9.152 98.6565 9.824 99.3605 10.72L96.5765 13.536C96.0858 12.96 95.5312 12.5547 94.9125 12.32C94.3152 12.0853 93.7285 11.968 93.1525 11.968C92.5978 11.968 92.1818 12.0533 91.9045 12.224C91.6272 12.3733 91.4885 12.5973 91.4885 12.896C91.4885 13.216 91.6698 13.472 92.0325 13.664C92.3952 13.856 92.8645 14.0267 93.4405 14.176C94.0165 14.3253 94.6245 14.5067 95.2645 14.72C95.9045 14.9333 96.5125 15.2213 97.0885 15.584C97.6645 15.9467 98.1338 16.4373 98.4965 17.056C98.8592 17.6533 99.0405 18.4427 99.0405 19.424C99.0405 20.9387 98.4645 22.144 97.3125 23.04C96.1818 23.936 94.6458 24.384 92.7045 24.384ZM109.217 24.352C107.617 24.352 106.166 24 104.865 23.296C103.563 22.592 102.539 21.6213 101.793 20.384C101.046 19.1467 100.673 17.76 100.673 16.224C100.673 14.6667 101.046 13.28 101.793 12.064C102.561 10.8267 103.595 9.856 104.897 9.152C106.198 8.448 107.659 8.096 109.281 8.096C110.497 8.096 111.606 8.30933 112.609 8.736C113.633 9.14133 114.539 9.76 115.329 10.592L112.193 13.728C111.83 13.3227 111.403 13.024 110.913 12.832C110.443 12.64 109.899 12.544 109.281 12.544C108.577 12.544 107.947 12.704 107.393 13.024C106.859 13.3227 106.433 13.7493 106.113 14.304C105.814 14.8373 105.665 15.4667 105.665 16.192C105.665 16.9173 105.814 17.5573 106.113 18.112C106.433 18.6667 106.87 19.104 107.425 19.424C107.979 19.744 108.598 19.904 109.281 19.904C109.921 19.904 110.486 19.7973 110.977 19.584C111.489 19.3493 111.926 19.0293 112.289 18.624L115.393 21.76C114.582 22.6133 113.665 23.264 112.641 23.712C111.617 24.1387 110.475 24.352 109.217 24.352ZM123.693 24.32C122.263 24.32 120.983 23.968 119.853 23.264C118.743 22.56 117.858 21.6 117.197 20.384C116.557 19.168 116.237 17.7813 116.237 16.224C116.237 14.6667 116.557 13.28 117.197 12.064C117.858 10.848 118.743 9.888 119.853 9.184C120.983 8.48 122.263 8.128 123.693 8.128C124.738 8.128 125.677 8.33067 126.509 8.736C127.362 9.14133 128.055 9.70667 128.589 10.432C129.122 11.136 129.421 11.9467 129.485 12.864V19.584C129.421 20.5013 129.122 21.3227 128.589 22.048C128.077 22.752 127.394 23.3067 126.541 23.712C125.687 24.1173 124.738 24.32 123.693 24.32ZM124.685 19.904C125.73 19.904 126.573 19.5627 127.213 18.88C127.853 18.176 128.173 17.2907 128.173 16.224C128.173 15.4987 128.023 14.8587 127.725 14.304C127.447 13.7493 127.042 13.3227 126.509 13.024C125.997 12.704 125.399 12.544 124.717 12.544C124.034 12.544 123.426 12.704 122.893 13.024C122.381 13.3227 121.965 13.7493 121.645 14.304C121.346 14.8587 121.197 15.4987 121.197 16.224C121.197 16.928 121.346 17.5573 121.645 18.112C121.943 18.6667 122.359 19.104 122.893 19.424C123.426 19.744 124.023 19.904 124.685 19.904ZM127.981 24V19.808L128.717 16.032L127.981 12.256V8.448H132.781V24H127.981ZM146.5 24V15.136C146.5 14.3253 146.244 13.6747 145.732 13.184C145.241 12.672 144.612 12.416 143.844 12.416C143.311 12.416 142.841 12.5333 142.436 12.768C142.031 12.9813 141.711 13.3013 141.476 13.728C141.241 14.1333 141.124 14.6027 141.124 15.136L139.236 14.208C139.236 12.992 139.503 11.9253 140.036 11.008C140.569 10.0907 141.305 9.38667 142.244 8.896C143.204 8.384 144.281 8.128 145.476 8.128C146.628 8.128 147.641 8.40533 148.516 8.96C149.412 9.49333 150.116 10.208 150.628 11.104C151.14 12 151.396 12.9813 151.396 14.048V24H146.5ZM136.228 24V8.448H141.124V24H136.228Z" fill="#357960"/>
</svg>
