<svg viewBox="0 0 238 39" fill="none" xmlns="http://www.w3.org/2000/svg">
<path d="M6.932 38H0.596V2.6H11.972C14.692 2.6 16.988 3.12 18.86 4.16C20.748 5.184 22.18 6.584 23.156 8.36C24.148 10.12 24.644 12.088 24.644 14.264C24.644 16.456 24.148 18.464 23.156 20.288C22.164 22.112 20.716 23.576 18.812 24.68C16.924 25.768 14.644 26.312 11.972 26.312H6.932V38ZM6.932 24.296L4.076 21.296H11.276C12.748 21.296 14.004 21.016 15.044 20.456C16.084 19.88 16.876 19.072 17.42 18.032C17.98 16.976 18.26 15.72 18.26 14.264C18.26 12.808 17.988 11.592 17.444 10.616C16.916 9.624 16.132 8.88 15.092 8.384C14.052 7.888 12.78 7.64 11.276 7.64H4.076L6.932 4.496V24.296ZM40.946 38.504C38.258 38.504 35.89 37.944 33.842 36.824C31.794 35.688 30.186 34.12 29.018 32.12C27.866 30.12 27.29 27.832 27.29 25.256C27.29 22.664 27.866 20.384 29.018 18.416C30.186 16.432 31.794 14.88 33.842 13.76C35.89 12.64 38.258 12.08 40.946 12.08C43.634 12.08 46.002 12.64 48.05 13.76C50.098 14.88 51.698 16.432 52.85 18.416C54.018 20.384 54.602 22.664 54.602 25.256C54.602 27.832 54.018 30.12 52.85 32.12C51.698 34.12 50.098 35.688 48.05 36.824C46.002 37.944 43.634 38.504 40.946 38.504ZM40.946 33.344C42.402 33.344 43.674 33.008 44.762 32.336C45.85 31.664 46.698 30.728 47.306 29.528C47.914 28.312 48.218 26.888 48.218 25.256C48.218 23.624 47.914 22.216 47.306 21.032C46.698 19.832 45.85 18.904 44.762 18.248C43.674 17.592 42.402 17.264 40.946 17.264C39.506 17.264 38.234 17.592 37.13 18.248C36.042 18.904 35.194 19.832 34.586 21.032C33.978 22.216 33.674 23.624 33.674 25.256C33.674 26.888 33.978 28.312 34.586 29.528C35.194 30.728 36.042 31.664 37.13 32.336C38.234 33.008 39.506 33.344 40.946 33.344ZM59.8242 38V0.487998H65.8243V22.472L64.4563 21.8L74.9923 12.512H82.8403L70.3603 23.624L71.7763 21.032L82.7203 38H76.0483L67.6483 24.392L69.1843 24.656L65.1043 28.304L65.8243 25.496V38H59.8242ZM87.395 27.296V22.808H105.227L104.507 24.008C104.507 23.912 104.507 23.808 104.507 23.696C104.507 23.568 104.507 23.464 104.507 23.384C104.507 22.28 104.259 21.248 103.763 20.288C103.267 19.312 102.515 18.528 101.507 17.936C100.499 17.328 99.219 17.024 97.667 17.024C96.131 17.024 94.795 17.352 93.659 18.008C92.539 18.648 91.667 19.576 91.043 20.792C90.435 22.008 90.131 23.464 90.131 25.16C90.131 26.904 90.427 28.408 91.019 29.672C91.611 30.92 92.475 31.88 93.611 32.552C94.763 33.208 96.163 33.536 97.811 33.536C98.931 33.536 99.899 33.432 100.715 33.224C101.531 33.016 102.195 32.736 102.707 32.384C103.235 32.016 103.627 31.624 103.883 31.208C104.155 30.792 104.315 30.376 104.363 29.96H110.651C110.555 31.032 110.195 32.08 109.571 33.104C108.963 34.112 108.107 35.032 107.003 35.864C105.899 36.68 104.555 37.336 102.971 37.832C101.403 38.312 99.611 38.552 97.595 38.552C94.859 38.552 92.467 37.992 90.419 36.872C88.371 35.752 86.771 34.192 85.619 32.192C84.483 30.192 83.915 27.904 83.915 25.328C83.915 22.688 84.491 20.376 85.643 18.392C86.811 16.408 88.427 14.864 90.491 13.76C92.555 12.64 94.923 12.08 97.595 12.08C100.347 12.08 102.723 12.64 104.723 13.76C106.739 14.88 108.291 16.44 109.379 18.44C110.467 20.424 111.011 22.736 111.011 25.376C111.011 25.712 111.003 26.072 110.987 26.456C110.971 26.84 110.947 27.12 110.915 27.296H87.395ZM116.215 38V12.512H122.527V20.984L121.063 20.168C121.223 19.064 121.519 18.024 121.951 17.048C122.383 16.056 122.959 15.192 123.679 14.456C124.399 13.704 125.271 13.12 126.295 12.704C127.319 12.288 128.487 12.08 129.799 12.08C130.839 12.08 131.655 12.16 132.247 12.32C132.855 12.464 133.231 12.584 133.375 12.68L132.223 18.464C132.063 18.352 131.735 18.216 131.239 18.056C130.759 17.88 130.111 17.792 129.295 17.792C127.999 17.792 126.911 18.016 126.031 18.464C125.167 18.896 124.479 19.488 123.967 20.24C123.455 20.976 123.087 21.792 122.863 22.688C122.639 23.568 122.527 24.448 122.527 25.328V38H116.215Z" fill="#EF2A4F"/>
<path d="M137.236 38V12.512H143.476V38H137.236ZM140.38 7.808C139.356 7.808 138.46 7.536 137.692 6.992C136.94 6.432 136.564 5.656 136.564 4.664C136.564 3.688 136.94 2.928 137.692 2.384C138.46 1.84 139.356 1.568 140.38 1.568C141.388 1.568 142.268 1.84 143.02 2.384C143.772 2.928 144.148 3.688 144.148 4.664C144.148 5.656 143.772 6.432 143.02 6.992C142.268 7.536 141.388 7.808 140.38 7.808ZM167.755 38V26.696C167.755 26.056 167.755 25.496 167.755 25.016C167.755 24.52 167.755 24.072 167.755 23.672C167.755 22.52 167.587 21.488 167.251 20.576C166.931 19.648 166.371 18.92 165.571 18.392C164.787 17.864 163.699 17.6 162.307 17.6C161.091 17.6 160.011 17.896 159.067 18.488C158.123 19.064 157.379 19.864 156.835 20.888C156.307 21.896 156.043 23.064 156.043 24.392L153.907 23.072C153.907 20.944 154.387 19.056 155.347 17.408C156.323 15.744 157.627 14.44 159.259 13.496C160.891 12.552 162.699 12.08 164.683 12.08C166.731 12.08 168.451 12.48 169.843 13.28C171.251 14.08 172.307 15.216 173.01 16.688C173.731 18.16 174.091 19.888 174.091 21.872C174.091 22.64 174.091 23.504 174.091 24.464C174.091 25.424 174.091 26.368 174.091 27.296V38H167.755ZM149.73 38V12.512H156.043V38H149.73ZM182.504 27.296V22.808H200.336L199.616 24.008C199.616 23.912 199.616 23.808 199.616 23.696C199.616 23.568 199.616 23.464 199.616 23.384C199.616 22.28 199.368 21.248 198.872 20.288C198.376 19.312 197.624 18.528 196.616 17.936C195.608 17.328 194.328 17.024 192.776 17.024C191.24 17.024 189.904 17.352 188.768 18.008C187.648 18.648 186.776 19.576 186.152 20.792C185.544 22.008 185.24 23.464 185.24 25.16C185.24 26.904 185.536 28.408 186.128 29.672C186.72 30.92 187.584 31.88 188.72 32.552C189.872 33.208 191.272 33.536 192.92 33.536C194.04 33.536 195.008 33.432 195.824 33.224C196.64 33.016 197.304 32.736 197.816 32.384C198.344 32.016 198.736 31.624 198.992 31.208C199.264 30.792 199.424 30.376 199.472 29.96H205.76C205.664 31.032 205.304 32.08 204.68 33.104C204.072 34.112 203.216 35.032 202.112 35.864C201.008 36.68 199.664 37.336 198.08 37.832C196.512 38.312 194.72 38.552 192.704 38.552C189.968 38.552 187.576 37.992 185.528 36.872C183.48 35.752 181.88 34.192 180.728 32.192C179.592 30.192 179.024 27.904 179.024 25.328C179.024 22.688 179.6 20.376 180.752 18.392C181.92 16.408 183.536 14.864 185.6 13.76C187.664 12.64 190.032 12.08 192.704 12.08C195.456 12.08 197.832 12.64 199.832 13.76C201.848 14.88 203.4 16.44 204.488 18.44C205.576 20.424 206.12 22.736 206.12 25.376C206.12 25.712 206.112 26.072 206.096 26.456C206.08 26.84 206.056 27.12 206.024 27.296H182.504ZM213.676 27.296V22.808H231.508L230.788 24.008C230.788 23.912 230.788 23.808 230.788 23.696C230.788 23.568 230.788 23.464 230.788 23.384C230.788 22.28 230.54 21.248 230.044 20.288C229.548 19.312 228.796 18.528 227.788 17.936C226.78 17.328 225.5 17.024 223.948 17.024C222.412 17.024 221.076 17.352 219.94 18.008C218.82 18.648 217.948 19.576 217.324 20.792C216.716 22.008 216.412 23.464 216.412 25.16C216.412 26.904 216.708 28.408 217.3 29.672C217.892 30.92 218.756 31.88 219.892 32.552C221.044 33.208 222.444 33.536 224.092 33.536C225.212 33.536 226.18 33.432 226.996 33.224C227.812 33.016 228.476 32.736 228.988 32.384C229.516 32.016 229.908 31.624 230.164 31.208C230.436 30.792 230.596 30.376 230.644 29.96H236.932C236.836 31.032 236.476 32.08 235.852 33.104C235.244 34.112 234.388 35.032 233.284 35.864C232.18 36.68 230.836 37.336 229.252 37.832C227.684 38.312 225.892 38.552 223.876 38.552C221.14 38.552 218.748 37.992 216.7 36.872C214.652 35.752 213.052 34.192 211.9 32.192C210.764 30.192 210.196 27.904 210.196 25.328C210.196 22.688 210.772 20.376 211.924 18.392C213.092 16.408 214.708 14.864 216.772 13.76C218.836 12.64 221.204 12.08 223.876 12.08C226.628 12.08 229.004 12.64 231.004 13.76C233.02 14.88 234.572 16.44 235.66 18.44C236.748 20.424 237.292 22.736 237.292 25.376C237.292 25.712 237.284 26.072 237.268 26.456C237.252 26.84 237.228 27.12 237.196 27.296H213.676Z" fill="#EF2A4F"/>
<path d="M137.236 38V12.512H143.476V38H137.236ZM140.38 7.808C139.356 7.808 138.46 7.536 137.692 6.992C136.94 6.432 136.564 5.656 136.564 4.664C136.564 3.688 136.94 2.928 137.692 2.384C138.46 1.84 139.356 1.568 140.38 1.568C141.388 1.568 142.268 1.84 143.02 2.384C143.772 2.928 144.148 3.688 144.148 4.664C144.148 5.656 143.772 6.432 143.02 6.992C142.268 7.536 141.388 7.808 140.38 7.808ZM167.755 38V26.696C167.755 26.056 167.755 25.496 167.755 25.016C167.755 24.52 167.755 24.072 167.755 23.672C167.755 22.52 167.587 21.488 167.251 20.576C166.931 19.648 166.371 18.92 165.571 18.392C164.787 17.864 163.699 17.6 162.307 17.6C161.091 17.6 160.011 17.896 159.067 18.488C158.123 19.064 157.379 19.864 156.835 20.888C156.307 21.896 156.043 23.064 156.043 24.392L153.907 23.072C153.907 20.944 154.387 19.056 155.347 17.408C156.323 15.744 157.627 14.44 159.259 13.496C160.891 12.552 162.699 12.08 164.683 12.08C166.731 12.08 168.451 12.48 169.843 13.28C171.251 14.08 172.307 15.216 173.01 16.688C173.731 18.16 174.091 19.888 174.091 21.872C174.091 22.64 174.091 23.504 174.091 24.464C174.091 25.424 174.091 26.368 174.091 27.296V38H167.755ZM149.73 38V12.512H156.043V38H149.73ZM182.504 27.296V22.808H200.336L199.616 24.008C199.616 23.912 199.616 23.808 199.616 23.696C199.616 23.568 199.616 23.464 199.616 23.384C199.616 22.28 199.368 21.248 198.872 20.288C198.376 19.312 197.624 18.528 196.616 17.936C195.608 17.328 194.328 17.024 192.776 17.024C191.24 17.024 189.904 17.352 188.768 18.008C187.648 18.648 186.776 19.576 186.152 20.792C185.544 22.008 185.24 23.464 185.24 25.16C185.24 26.904 185.536 28.408 186.128 29.672C186.72 30.92 187.584 31.88 188.72 32.552C189.872 33.208 191.272 33.536 192.92 33.536C194.04 33.536 195.008 33.432 195.824 33.224C196.64 33.016 197.304 32.736 197.816 32.384C198.344 32.016 198.736 31.624 198.992 31.208C199.264 30.792 199.424 30.376 199.472 29.96H205.76C205.664 31.032 205.304 32.08 204.68 33.104C204.072 34.112 203.216 35.032 202.112 35.864C201.008 36.68 199.664 37.336 198.08 37.832C196.512 38.312 194.72 38.552 192.704 38.552C189.968 38.552 187.576 37.992 185.528 36.872C183.48 35.752 181.88 34.192 180.728 32.192C179.592 30.192 179.024 27.904 179.024 25.328C179.024 22.688 179.6 20.376 180.752 18.392C181.92 16.408 183.536 14.864 185.6 13.76C187.664 12.64 190.032 12.08 192.704 12.08C195.456 12.08 197.832 12.64 199.832 13.76C201.848 14.88 203.4 16.44 204.488 18.44C205.576 20.424 206.12 22.736 206.12 25.376C206.12 25.712 206.112 26.072 206.096 26.456C206.08 26.84 206.056 27.12 206.024 27.296H182.504ZM213.676 27.296V22.808H231.508L230.788 24.008C230.788 23.912 230.788 23.808 230.788 23.696C230.788 23.568 230.788 23.464 230.788 23.384C230.788 22.28 230.54 21.248 230.044 20.288C229.548 19.312 228.796 18.528 227.788 17.936C226.78 17.328 225.5 17.024 223.948 17.024C222.412 17.024 221.076 17.352 219.94 18.008C218.82 18.648 217.948 19.576 217.324 20.792C216.716 22.008 216.412 23.464 216.412 25.16C216.412 26.904 216.708 28.408 217.3 29.672C217.892 30.92 218.756 31.88 219.892 32.552C221.044 33.208 222.444 33.536 224.092 33.536C225.212 33.536 226.18 33.432 226.996 33.224C227.812 33.016 228.476 32.736 228.988 32.384C229.516 32.016 229.908 31.624 230.164 31.208C230.436 30.792 230.596 30.376 230.644 29.96H236.932C236.836 31.032 236.476 32.08 235.852 33.104C235.244 34.112 234.388 35.032 233.284 35.864C232.18 36.68 230.836 37.336 229.252 37.832C227.684 38.312 225.892 38.552 223.876 38.552C221.14 38.552 218.748 37.992 216.7 36.872C214.652 35.752 213.052 34.192 211.9 32.192C210.764 30.192 210.196 27.904 210.196 25.328C210.196 22.688 210.772 20.376 211.924 18.392C213.092 16.408 214.708 14.864 216.772 13.76C218.836 12.64 221.204 12.08 223.876 12.08C226.628 12.08 229.004 12.64 231.004 13.76C233.02 14.88 234.572 16.44 235.66 18.44C236.748 20.424 237.292 22.736 237.292 25.376C237.292 25.712 237.284 26.072 237.268 26.456C237.252 26.84 237.228 27.12 237.196 27.296H213.676Z" fill="#FFCD01"/>
</svg>
